<svg width="216" height="55" viewBox="0 0 216 55" fill="none" xmlns="http://www.w3.org/2000/svg">
<path d="M58.8006 45C55.7673 45 53.4173 44.2333 51.7506 42.7C50.0839 41.1667 49.2506 38.9167 49.2506 35.95V19C49.2506 16.0667 50.1506 13.8333 51.9506 12.3C53.7506 10.7667 56.2006 10 59.3006 10H66.6506V13.35H58.8006C57.2673 13.35 56.0173 13.8 55.0506 14.7C54.1173 15.5667 53.6506 16.7333 53.6506 18.2V36.85C53.6506 38.35 54.1006 39.5333 55.0006 40.4C55.9006 41.2667 57.1006 41.7 58.6006 41.7H63.2506V27.95H58.7506V24.65H67.6506V45H58.8006ZM73.1475 19H76.2475L76.6975 20.85L77.9475 20.25C79.0141 19.7167 79.8975 19.3167 80.5975 19.05C81.3308 18.7833 82.0641 18.65 82.7975 18.65V21.6C82.3641 21.6 81.7808 21.7333 81.0475 22C80.3141 22.2333 79.0141 22.8 77.1475 23.7V45H73.1475V19ZM91.7264 45C89.893 45 88.4264 44.45 87.3264 43.35C86.2597 42.25 85.7264 40.7667 85.7264 38.9V25.6C85.7264 23.4333 86.3264 21.7333 87.5264 20.5C88.7264 19.2667 90.5097 18.65 92.8764 18.65C95.243 18.65 97.0097 19.2667 98.1764 20.5C99.3764 21.7333 99.9764 23.4333 99.9764 25.6V27.9C99.9764 29.3 99.5764 30.3667 98.7764 31.1C97.9764 31.8 96.9264 32.3333 95.6264 32.7L89.7264 34.35V39.25C89.7264 40.05 89.9597 40.7167 90.4264 41.25C90.9264 41.75 91.5597 42 92.3264 42H97.7264V45H91.7264ZM92.7764 30.35C93.8764 30.05 94.6097 29.8333 94.9764 29.7C95.3764 29.5333 95.643 29.3 95.7764 29C95.9097 28.7 95.9764 28.2 95.9764 27.5V24.75C95.9764 23.6833 95.693 22.9 95.1264 22.4C94.593 21.9 93.843 21.65 92.8764 21.65C91.943 21.65 91.1764 21.9167 90.5764 22.45C90.0097 22.9833 89.7264 23.75 89.7264 24.75V31.2L92.7764 30.35ZM109.158 45C107.325 45 105.858 44.45 104.758 43.35C103.691 42.25 103.158 40.7667 103.158 38.9V25.6C103.158 23.4333 103.758 21.7333 104.958 20.5C106.158 19.2667 107.941 18.65 110.308 18.65C112.675 18.65 114.441 19.2667 115.608 20.5C116.808 21.7333 117.408 23.4333 117.408 25.6V27.9C117.408 29.3 117.008 30.3667 116.208 31.1C115.408 31.8 114.358 32.3333 113.058 32.7L107.158 34.35V39.25C107.158 40.05 107.391 40.7167 107.858 41.25C108.358 41.75 108.991 42 109.758 42H115.158V45H109.158ZM110.208 30.35C111.308 30.05 112.041 29.8333 112.408 29.7C112.808 29.5333 113.075 29.3 113.208 29C113.341 28.7 113.408 28.2 113.408 27.5V24.75C113.408 23.6833 113.125 22.9 112.558 22.4C112.025 21.9 111.275 21.65 110.308 21.65C109.375 21.65 108.608 21.9167 108.008 22.45C107.441 22.9833 107.158 23.75 107.158 24.75V31.2L110.208 30.35ZM121.39 19H124.49L124.94 20.45L126.99 19.85C128.39 19.4167 129.49 19.1167 130.29 18.95C131.123 18.75 131.906 18.65 132.64 18.65C133.84 18.65 134.723 19.0667 135.29 19.9C135.856 20.7333 136.14 21.8167 136.14 23.15V45H132.14V24.45C132.14 23.4833 132.073 22.8167 131.94 22.45C131.806 22.05 131.473 21.85 130.94 21.85C130.673 21.85 128.823 22.3833 125.39 23.45V45H121.39V19ZM142.352 45V10H157.102V13.4H146.752V25.4H154.552V28.8H146.752V45H142.352ZM161.087 14.75V10.75H165.087V14.75H161.087ZM161.087 45V19H165.087V45H161.087ZM176.297 45C174.463 45 172.997 44.45 171.897 43.35C170.83 42.25 170.297 40.7667 170.297 38.9V25.6C170.297 23.4333 170.897 21.7333 172.097 20.5C173.297 19.2667 175.08 18.65 177.447 18.65C179.813 18.65 181.58 19.2667 182.747 20.5C183.947 21.7333 184.547 23.4333 184.547 25.6V27.9C184.547 29.3 184.147 30.3667 183.347 31.1C182.547 31.8 181.497 32.3333 180.197 32.7L174.297 34.35V39.25C174.297 40.05 174.53 40.7167 174.997 41.25C175.497 41.75 176.13 42 176.897 42H182.297V45H176.297ZM177.347 30.35C178.447 30.05 179.18 29.8333 179.547 29.7C179.947 29.5333 180.213 29.3 180.347 29C180.48 28.7 180.547 28.2 180.547 27.5V24.75C180.547 23.6833 180.263 22.9 179.697 22.4C179.163 21.9 178.413 21.65 177.447 21.65C176.513 21.65 175.747 21.9167 175.147 22.45C174.58 22.9833 174.297 23.75 174.297 24.75V31.2L177.347 30.35ZM188.578 45V10H192.578V45H188.578ZM205.138 45C203.038 45 201.338 44.3833 200.038 43.15C198.738 41.9167 198.088 40.2667 198.088 38.2V25.75C198.088 24.3167 198.471 23.1 199.238 22.1C200.038 21.1 201.021 20.4167 202.188 20.05L208.888 17.7V10H212.888V45H205.138ZM208.888 42V21L204.438 22.5C203.571 22.7667 202.955 23.2 202.588 23.8C202.255 24.3667 202.088 25.2833 202.088 26.55V38.2C202.088 39.4 202.438 40.3333 203.138 41C203.838 41.6667 204.788 42 205.988 42H208.888Z" fill="#97DBAE"/>
<path d="M2.78285 18.6018C4.02357 26.1394 3.82157 33.5485 3.82157 41.1851C5.23234 44.042 10.9504 43.3498 13.4297 42.7919C16.8161 42.03 20.7129 41.8052 24.192 41.302C28.7719 40.6395 33.2229 40.1333 37.8397 40.1333C39.0687 40.1333 37.6204 35.337 37.58 34.2319C37.4204 29.8679 37.2846 25.5831 37.0318 21.2311C36.9643 20.0687 35.7082 10.9955 35.5026 11.0935C31.717 12.8972 28.5437 17.2047 25.6347 20.1502C23.9134 21.8931 22.4816 23.4845 21.5952 25.8179C21.0674 27.2074 20.5087 25.2166 20.1814 24.6201C19.6572 23.6646 19.9515 22.2573 19.9218 21.2019C19.8582 18.949 18.932 16.7623 18.883 14.4824C18.8563 13.2376 19.4488 5.47796 18.0751 7.26626C16.1411 9.7841 15.533 12.8061 14.7281 15.8263C13.7571 19.4699 13.1701 23.4349 13.1701 27.2202C13.1701 29.2499 13.253 28.6217 12.6507 27.2494C12.0046 25.7776 10.6065 24.8082 9.64995 23.5976C7.66749 21.0884 5.61341 18.6766 3.41763 16.3522C2.87554 15.7784 1.23668 12.1849 1.77298 14.6285C2.06167 15.9439 2.55493 17.217 2.78285 18.6018Z" fill="#97DBAE" stroke="#97DBAE" stroke-width="3" stroke-linecap="square"/>
</svg>
